<?xml version="1.0" standalone="no"?>
<!DOCTYPE svg PUBLIC "-//W3C//DTD SVG 20010904//EN"
 "http://www.w3.org/TR/2001/REC-SVG-20010904/DTD/svg10.dtd">
<svg version="1.0" xmlns="http://www.w3.org/2000/svg"
 width="250.000000pt" height="250.000000pt" viewBox="0 0 250.000000 250.000000"
 preserveAspectRatio="xMidYMid meet">
<metadata>
Created by potrace 1.14, written by Peter Selinger 2001-2017
</metadata>
<g transform="translate(0.000000,250.000000) scale(0.100000,-0.100000)"
fill="#000000" stroke="none">
<path d="M1085 2145 c-174 -32 -338 -113 -463 -230 -52 -48 -142 -159 -142
-174 0 -6 -4 -11 -8 -11 -10 0 -74 -134 -97 -205 -40 -122 -57 -328 -34 -424
5 -20 12 -52 15 -71 11 -63 96 -262 124 -290 3 -3 24 -30 47 -60 38 -49 147
-160 158 -160 2 0 35 -21 72 -48 37 -26 69 -46 70 -45 2 2 24 -7 50 -19 80
-35 135 -52 215 -66 87 -14 339 -5 369 14 5 3 19 7 31 10 32 7 39 9 73 23 70
27 111 45 125 56 8 6 31 21 51 32 79 45 200 166 268 267 51 75 116 226 127
292 3 21 8 43 11 48 13 20 11 245 -2 316 -18 96 -21 109 -35 145 -6 17 -11 31
-11 33 3 7 -73 147 -80 150 -5 2 -9 8 -9 14 0 25 -187 228 -210 228 -6 0 -10
5 -10 10 0 6 -4 10 -9 10 -5 0 -31 15 -59 34 -48 32 -184 94 -224 101 -11 2
-27 6 -36 9 -77 23 -280 29 -377 11z"/>
</g>
</svg>
